<?xml version="1.0" encoding="UTF-8" standalone="no"?>
<!-- Created with Inkscape (http://www.inkscape.org/) -->

<svg
   xmlns:dc="http://purl.org/dc/elements/1.1/"
   xmlns:cc="http://creativecommons.org/ns#"
   xmlns:rdf="http://www.w3.org/1999/02/22-rdf-syntax-ns#"
   xmlns:svg="http://www.w3.org/2000/svg"
   xmlns="http://www.w3.org/2000/svg"
   xmlns:xlink="http://www.w3.org/1999/xlink"
   xmlns:sodipodi="http://sodipodi.sourceforge.net/DTD/sodipodi-0.dtd"
   xmlns:inkscape="http://www.inkscape.org/namespaces/inkscape"
   width="256"
   height="256"
   id="svg2"
   version="1.1"
   inkscape:version="0.48.2 r9819"
   sodipodi:docname="CodeRacoon.svg"
   inkscape:export-filename="/Users/tox/Documents/android/CodeRacoon/icons/CodeRacoon.png"
   inkscape:export-xdpi="90"
   inkscape:export-ydpi="90">
  <defs
     id="defs4">
    <linearGradient
       id="linearGradient3784">
      <stop
         style="stop-color:#9f9f9f;stop-opacity:1;"
         offset="0"
         id="stop3786" />
      <stop
         style="stop-color:#6c6c6c;stop-opacity:0.45689654;"
         offset="1"
         id="stop3788" />
    </linearGradient>
    <linearGradient
       id="linearGradient3774">
      <stop
         style="stop-color:#000000;stop-opacity:0.24137931;"
         offset="0"
         id="stop3776" />
      <stop
         style="stop-color:#ffffff;stop-opacity:1;"
         offset="1"
         id="stop3778" />
    </linearGradient>
    <linearGradient
       id="linearGradient3898">
      <stop
         style="stop-color:#999999;stop-opacity:1;"
         offset="0"
         id="stop3900" />
      <stop
         style="stop-color:#999999;stop-opacity:0;"
         offset="1"
         id="stop3902" />
    </linearGradient>
    <linearGradient
       inkscape:collect="always"
       xlink:href="#linearGradient3898"
       id="linearGradient3904"
       x1="459.20114"
       y1="222.72205"
       x2="457.51688"
       y2="248.185"
       gradientUnits="userSpaceOnUse"
       gradientTransform="matrix(1.0512201,0,0,1.0512201,-9.3312878,-54.543465)" />
    <filter
       inkscape:collect="always"
       id="filter4065"
       x="-0.49510913"
       width="1.9902183"
       y="-0.72076421"
       height="2.4415284">
      <feGaussianBlur
         inkscape:collect="always"
         stdDeviation="25.819255"
         id="feGaussianBlur4067" />
    </filter>
    <mask
       maskUnits="userSpaceOnUse"
       id="mask4083">
      <path
         sodipodi:nodetypes="cssscssssscssczcscsc"
         inkscape:connector-curvature="0"
         id="path4085"
         d="m 303.89583,195.41319 c -2.42332,0.0798 -4.87495,0.63001 -7.0625,1.75001 -5.27395,2.70022 -8.00088,8.34557 -8.68749,13.9375 -0.68662,5.59192 0.13576,11.75055 1.9375,18.65625 3.31831,12.71844 10.3067,28.03908 20.0625,44.375 -12.74709,14.76048 -21.00001,30.44699 -21.00001,44.5 0,17.69197 13.48682,32.3705 32.6875,42.3125 19.20069,9.94198 44.92304,15.78125 73.28126,15.78125 28.35822,0 54.10447,-5.83978 73.31249,-15.78125 19.20805,-9.94147 32.68751,-24.61807 32.68751,-42.3125 0,-9.63092 -3.86359,-20.10768 -10.125,-30.625 9.99418,-13.40022 18.84084,-23.27085 22.85764,-34.12848 2.19366,-5.92957 2.09285,-14.1179 1.92361,-19.27778 -0.16925,-5.15988 -2.23803,-10.58141 -6.71875,-13.71875 -9.85153,-5.82508 -22.56495,-1.0904 -38.88426,6.29168 -16.3193,7.38207 -12.08835,8.01495 -23.86574,17.61458 -14.62229,-8.2701 -31.45724,-13.84375 -49.75,-13.84375 -11.87581,0 -23.2666,2.39391 -33.90625,6.25 -10.12238,-11.78193 -20.27723,-21.74076 -29.71875,-28.93751 -10.40797,-7.93341 -19.61109,-13.15411 -29.03126,-12.84375 z"
         style="font-size:medium;font-style:normal;font-variant:normal;font-weight:normal;font-stretch:normal;text-indent:0;text-align:start;text-decoration:none;line-height:normal;letter-spacing:normal;word-spacing:normal;text-transform:none;direction:ltr;block-progression:tb;writing-mode:lr-tb;text-anchor:start;baseline-shift:baseline;color:#000000;fill:#ffffff;fill-opacity:1;fill-rule:nonzero;stroke:none;stroke-width:13.39675713;marker:none;visibility:visible;display:inline;overflow:visible;enable-background:accumulate;font-family:Sans;-inkscape-font-specification:Sans" />
    </mask>
    <mask
       maskUnits="userSpaceOnUse"
       id="mask4087">
      <path
         sodipodi:nodetypes="cssscssssscssczcscsc"
         inkscape:connector-curvature="0"
         id="path4089"
         d="m 363.15509,197.26504 c -2.42331,0.0798 -4.87495,0.63001 -7.06249,1.75001 -5.27396,2.70022 -8.00089,8.34558 -8.6875,13.9375 -0.68662,5.59192 0.13577,11.75055 1.9375,18.65625 3.31832,12.71844 10.3067,28.03908 20.0625,44.375 -12.74708,14.76048 -21.00001,30.44699 -21.00001,44.50001 0,17.69196 13.48682,32.3705 32.6875,42.3125 19.20069,9.94198 44.92304,15.78124 73.28126,15.78124 28.35822,0 54.10447,-5.83978 73.3125,-15.78124 19.20804,-9.94148 32.6875,-24.61807 32.6875,-42.3125 0,-9.63093 -3.86359,-20.10769 -10.125,-30.62501 9.99418,-13.40022 18.84084,-23.27085 22.85764,-34.12847 2.19366,-5.92958 2.09286,-14.1179 1.92362,-19.27778 -0.16926,-5.15988 -2.23804,-10.58141 -6.71876,-13.71876 -9.85152,-5.82508 -22.56495,-1.0904 -38.88425,6.29168 -16.31931,7.38207 -12.08836,8.01495 -23.86575,17.61458 -14.62228,-8.27009 -31.45724,-13.84375 -49.75,-13.84375 -11.87581,0 -23.2666,2.39391 -33.90625,6.25 -10.12238,-11.78193 -20.27722,-21.74076 -29.71875,-28.9375 -10.40797,-7.93341 -19.61109,-13.15412 -29.03126,-12.84376 z"
         style="font-size:medium;font-style:normal;font-variant:normal;font-weight:normal;font-stretch:normal;text-indent:0;text-align:start;text-decoration:none;line-height:normal;letter-spacing:normal;word-spacing:normal;text-transform:none;direction:ltr;block-progression:tb;writing-mode:lr-tb;text-anchor:start;baseline-shift:baseline;color:#000000;fill:#ffffff;fill-opacity:1;fill-rule:nonzero;stroke:none;stroke-width:13.39675713;marker:none;visibility:visible;display:inline;overflow:visible;enable-background:accumulate;font-family:Sans;-inkscape-font-specification:Sans" />
    </mask>
    <filter
       inkscape:collect="always"
       id="filter4171"
       x="-0.34350105"
       width="1.6870021"
       y="-0.46269568"
       height="1.9253914">
      <feGaussianBlur
         inkscape:collect="always"
         stdDeviation="18.787445"
         id="feGaussianBlur4173" />
    </filter>
    <mask
       maskUnits="userSpaceOnUse"
       id="mask4199">
      <path
         mask="none"
         sodipodi:nodetypes="cssscssssscssczcscsc"
         inkscape:connector-curvature="0"
         id="path4201"
         d="m 367.07121,156.71892 c -2.54744,0.0839 -5.12465,0.66228 -7.42424,1.83964 -5.54409,2.83853 -8.41069,8.77304 -9.13247,14.65138 -0.72179,5.87834 0.14272,12.35242 2.03674,19.61183 3.48828,13.36988 10.83461,29.47524 21.0901,46.64789 -13.39999,15.51651 -22.07563,32.00649 -22.07563,46.7793 0,18.59815 14.17762,34.02852 34.36176,44.47975 20.18415,10.45121 47.224,16.58956 77.03473,16.58956 29.81073,0 56.87571,-6.13889 77.06757,-16.58956 20.19188,-10.45068 34.36176,-25.87901 34.36176,-44.47975 0,-10.12422 -4.06148,-21.1376 -10.6436,-32.19362 10.50608,-14.08658 19.80587,-24.46279 24.02841,-35.87654 2.30602,-6.23329 2.20005,-14.84102 2.02214,-20.26519 -0.17792,-5.42417 -2.35267,-11.12339 -7.06289,-14.42143 -10.35612,-6.12344 -23.72073,-1.14625 -40.87591,6.61394 -17.15518,7.76018 -12.70752,8.42548 -25.08815,18.5168 -15.37124,-8.69369 -33.06848,-14.55283 -52.2982,-14.55283 -12.48409,0 -24.45832,2.51653 -35.64293,6.57013 -10.64085,-12.3854 -21.31583,-22.85433 -31.24095,-30.41969 -10.94107,-8.33976 -20.61557,-13.82787 -30.51824,-13.50161 z"
         style="font-size:medium;font-style:normal;font-variant:normal;font-weight:normal;font-stretch:normal;text-indent:0;text-align:start;text-decoration:none;line-height:normal;letter-spacing:normal;word-spacing:normal;text-transform:none;direction:ltr;block-progression:tb;writing-mode:lr-tb;text-anchor:start;baseline-shift:baseline;color:#000000;fill:#ffffff;fill-opacity:1;fill-rule:nonzero;stroke:none;stroke-width:13.39675713;marker:none;visibility:visible;display:inline;overflow:visible;enable-background:accumulate;font-family:Sans;-inkscape-font-specification:Sans" />
    </mask>
  </defs>
  <sodipodi:namedview
     id="base"
     pagecolor="#ffffff"
     bordercolor="#666666"
     borderopacity="1.0"
     inkscape:pageopacity="0.0"
     inkscape:pageshadow="2"
     inkscape:zoom="3.77"
     inkscape:cx="152.79264"
     inkscape:cy="124.74341"
     inkscape:document-units="px"
     inkscape:current-layer="g4179"
     showgrid="false"
     showguides="true"
     inkscape:guide-bbox="true"
     inkscape:window-width="1676"
     inkscape:window-height="1006"
     inkscape:window-x="4"
     inkscape:window-y="22"
     inkscape:window-maximized="1"
     fit-margin-top="0"
     fit-margin-left="0"
     fit-margin-right="0"
     fit-margin-bottom="0" />
  <metadata
     id="metadata7">
    <rdf:RDF>
      <cc:Work
         rdf:about="">
        <dc:format>image/svg+xml</dc:format>
        <dc:type
           rdf:resource="http://purl.org/dc/dcmitype/StillImage" />
        <dc:title></dc:title>
      </cc:Work>
    </rdf:RDF>
  </metadata>
  <g
     inkscape:label="Ebene 1"
     inkscape:groupmode="layer"
     id="layer1"
     transform="translate(-342.07154,-126.28125)">
    <g
       id="g4179"
       mask="url(#mask4199)">
      <path
         mask="none"
         sodipodi:nodetypes="cssscssssscssczcscsc"
         inkscape:connector-curvature="0"
         id="path3792"
         d="m 367.07121,156.71892 c -2.54744,0.0839 -5.12465,0.66228 -7.42424,1.83964 -5.54409,2.83853 -8.41069,8.77304 -9.13247,14.65138 -0.72179,5.87834 0.14272,12.35242 2.03674,19.61183 3.48828,13.36988 10.83461,29.47524 21.0901,46.64789 -13.39999,15.51651 -22.07563,32.00649 -22.07563,46.7793 0,18.59815 14.17762,34.02852 34.36176,44.47975 20.18415,10.45121 47.224,16.58956 77.03473,16.58956 29.81073,0 56.87571,-6.13889 77.06757,-16.58956 20.19188,-10.45068 34.36176,-25.87901 34.36176,-44.47975 0,-10.12422 -4.06148,-21.1376 -10.6436,-32.19362 10.50608,-14.08658 19.80587,-24.46279 24.02841,-35.87654 2.30602,-6.23329 2.20005,-14.84102 2.02214,-20.26519 -0.17792,-5.42417 -2.35267,-11.12339 -7.06289,-14.42143 -10.35612,-6.12344 -23.72073,-1.14625 -40.87591,6.61394 -17.15518,7.76018 -7.53511,-0.62624 -25.08815,18.5168 -15.37124,-8.69369 -33.06848,-14.55283 -52.2982,-14.55283 -12.48409,0 -24.45832,2.51653 -35.64293,6.57013 -10.64085,-12.3854 -21.31583,-22.85433 -31.24095,-30.41969 -10.94107,-8.33976 -20.61557,-13.82787 -30.51824,-13.50161 z"
         style="font-size:medium;font-style:normal;font-variant:normal;font-weight:normal;font-stretch:normal;text-indent:0;text-align:start;text-decoration:none;line-height:normal;letter-spacing:normal;word-spacing:normal;text-transform:none;direction:ltr;block-progression:tb;writing-mode:lr-tb;text-anchor:start;baseline-shift:baseline;color:#000000;fill:#7e7e7e;fill-opacity:1;fill-rule:nonzero;stroke:none;stroke-width:13.39675712999999924;marker:none;visibility:visible;display:inline;overflow:visible;enable-background:accumulate;font-family:Sans;-inkscape-font-specification:Sans" />
      <path
         mask="none"
         style="font-size:medium;font-style:normal;font-variant:normal;font-weight:normal;font-stretch:normal;text-indent:0;text-align:start;text-decoration:none;line-height:normal;letter-spacing:normal;word-spacing:normal;text-transform:none;direction:ltr;block-progression:tb;writing-mode:lr-tb;text-anchor:start;baseline-shift:baseline;color:#000000;fill:url(#linearGradient3904);fill-opacity:1;fill-rule:nonzero;stroke:none;stroke-width:13.39675713;marker:none;visibility:visible;display:inline;overflow:visible;enable-background:accumulate;font-family:Sans;-inkscape-font-specification:Sans"
         d="m 428.8304,200.64022 c -30.44517,-69.92249 -133.47292,-61.83388 -55.18906,38.82944 12.53694,-18.69273 37.55554,-37.49331 55.18906,-38.82944 z m 134.91753,53.41512 c 84.19395,-77.26554 -0.76317,-111.37576 -46.9764,-45.43242 29.7453,11.38774 35.52481,29.16636 46.9764,45.43242 z"
         id="path3888"
         inkscape:connector-curvature="0"
         sodipodi:nodetypes="cccccc" />
      <path
         mask="none"
         transform="matrix(1.2216195,0.01814208,0,0.89812392,-60.950785,-32.675082)"
         d="m 513.88888,340.55664 c 0,22.88402 -38.44962,41.43519 -85.87963,41.43519 -47.43001,0 -85.87963,-18.55117 -85.87963,-41.43519 0,-22.88402 38.44962,-41.43518 85.87963,-41.43518 47.43001,0 85.87963,18.55116 85.87963,41.43518 z"
         sodipodi:ry="41.435184"
         sodipodi:rx="85.879631"
         sodipodi:cy="340.55664"
         sodipodi:cx="428.00925"
         id="path3884"
         style="fill:#4a4a4a;fill-opacity:0.81089741;stroke:none"
         sodipodi:type="arc" />
      <path
         mask="none"
         sodipodi:type="arc"
         style="fill:#393939;fill-opacity:1;stroke:none"
         id="path3886"
         sodipodi:cx="428.00925"
         sodipodi:cy="340.55664"
         sodipodi:rx="85.879631"
         sodipodi:ry="41.435184"
         d="m 513.88888,340.55664 c 0,22.88402 -38.44962,41.43519 -85.87963,41.43519 -47.43001,0 -85.87963,-18.55117 -85.87963,-41.43519 0,-22.88402 38.44962,-41.43518 85.87963,-41.43518 47.43001,0 85.87963,18.55116 85.87963,41.43518 z"
         transform="matrix(0.66593048,0,0,0.65187393,175.52993,66.369586)" />
      <path
         mask="none"
         inkscape:connector-curvature="0"
         id="path3842"
         d="m 457.74139,222.48953 c -27.84821,0.57919 -52.93942,7.19338 -70.23465,24.83508 -8.91203,9.6055 -14.15476,18.65994 -16.39246,27.39742 17.54429,-14.20475 53.94703,-24.62789 76.0492,-27.46312 1.2272,29.08537 6.67795,-7.47134 10.57791,-24.76938 z m 18.06785,0.55846 c -2.12206,24.48983 -0.72067,48.19258 4.50053,26.83897 22.73563,3.97005 48.59803,11.44238 65.37275,20.89299 -1.2627,-2.89255 -3.14022,-6.59073 -5.94596,-11.79337 -13.69299,-24.48263 -38.60152,-33.6516 -63.92732,-35.93859 z"
         style="font-size:medium;font-style:normal;font-variant:normal;font-weight:normal;font-stretch:normal;text-indent:0;text-align:start;text-decoration:none;line-height:normal;letter-spacing:normal;word-spacing:normal;text-transform:none;direction:ltr;block-progression:tb;writing-mode:lr-tb;text-anchor:start;baseline-shift:baseline;color:#000000;fill:#b0b0b0;fill-opacity:1;fill-rule:nonzero;stroke:none;stroke-width:13.39675713;marker:none;visibility:visible;display:inline;overflow:visible;enable-background:accumulate;font-family:Sans;-inkscape-font-specification:Sans" />
      <path
         mask="none"
         sodipodi:nodetypes="ccsc"
         inkscape:connector-curvature="0"
         id="path3849"
         d="m 413.17606,196.18201 c -7.00503,0.76721 -26.91894,11.75311 -33.72585,27.17873 -17.03427,-21.13768 -23.29348,-44.35734 -13.98036,-51.86254 9.31314,-7.50519 30.67194,3.54613 47.70621,24.68381 z"
         style="opacity:0.57680251;fill:#ffffff;fill-opacity:1;stroke:none" />
      <path
         mask="none"
         sodipodi:nodetypes="ccsc"
         inkscape:connector-curvature="0"
         id="path3851"
         d="m 557.46727,241.69339 c -10.8284,-20.62612 -14.66597,-19.30842 -28.49042,-29.66838 18.2094,-18.38269 39.34885,-26.64331 47.21626,-18.45061 7.86742,8.19269 -0.51643,29.73631 -18.72584,48.11899 z"
         style="opacity:0.57680251;fill:#ffffff;fill-opacity:1;stroke:none" />
      <path
         mask="none"
         transform="matrix(1.0512201,0,0,1.0512201,-13.291824,-67.583023)"
         d="m 490.27777,357.45477 c 0,8.94906 -17.8257,16.20371 -39.81482,16.20371 -21.98911,0 -39.81481,-7.25465 -39.81481,-16.20371 0,-8.94906 17.8257,-16.2037 39.81481,-16.2037 21.98912,0 39.81482,7.25464 39.81482,16.2037 z"
         sodipodi:ry="16.203703"
         sodipodi:rx="39.814816"
         sodipodi:cy="357.45477"
         sodipodi:cx="450.46295"
         id="path3856"
         style="fill:#ffffff;fill-opacity:1;stroke:none;opacity:1"
         sodipodi:type="arc" />
      <path
         mask="none"
         sodipodi:nodetypes="sssss"
         inkscape:connector-curvature="0"
         id="path3824"
         d="m 481.54125,302.55974 c 0,4.44793 -4.30441,13.40713 -16.62549,13.89382 -8.42109,0.33262 -19.66222,-1.27522 -20.61308,-14.38049 -0.32949,-4.54125 -0.44609,-14.3494 19.63974,-13.40715 10.37437,0.48667 17.59883,9.44589 17.59883,13.89382 z"
         style="fill:#000000;fill-opacity:1;stroke:none" />
      <path
         mask="none"
         sodipodi:nodetypes="ccsscczc"
         inkscape:connector-curvature="0"
         id="path3906"
         d="m 500.69398,310.4066 c -0.59354,0.3134 -1.30714,0.57613 -1.83963,0.78841 -1.32793,0.49359 -3.26661,1.13355 -5.71601,1.83964 -4.89879,1.41217 -11.80304,3.08449 -19.77608,4.27057 -15.94609,2.37218 -36.52102,2.85913 -53.65641,-4.13636 l 3.00132,2.83969 c 17.41861,7.11112 29.99847,7.43732 45.95258,6.69513 15.95411,-0.74219 33.1438,-9.35474 32.03423,-12.29708 z"
         style="font-size:medium;font-style:normal;font-variant:normal;font-weight:normal;font-stretch:normal;text-indent:0;text-align:start;text-decoration:none;line-height:normal;letter-spacing:normal;word-spacing:normal;text-transform:none;direction:ltr;block-progression:tb;writing-mode:lr-tb;text-anchor:start;baseline-shift:baseline;color:#000000;fill:#000000;fill-opacity:1;stroke:none;stroke-width:1px;marker:none;visibility:visible;display:inline;overflow:visible;enable-background:accumulate;font-family:Sans;-inkscape-font-specification:Sans" />
      <path
         mask="none"
         transform="matrix(0.53798489,-0.32189732,0.34122666,0.50750987,418.95343,267.5936)"
         d="m 186.63794,134.66379 a 72.844826,36.094143 0 1 1 -145.689652,0 72.844826,36.094143 0 1 1 145.689652,0 z"
         sodipodi:ry="36.094143"
         sodipodi:rx="72.844826"
         sodipodi:cy="134.66379"
         sodipodi:cx="113.79311"
         id="path3795"
         style="opacity:0.53291536;fill:#000000;fill-opacity:1;stroke:none;filter:url(#filter4171)"
         sodipodi:type="arc" />
      <path
         mask="none"
         sodipodi:type="arc"
         style="opacity:0.44006276;fill:#ffffff;fill-opacity:1;stroke:none;filter:url(#filter4065)"
         id="path3805"
         sodipodi:cx="113.79311"
         sodipodi:cy="134.66379"
         sodipodi:rx="72.844826"
         sodipodi:ry="21.336206"
         d="m 186.63794,134.66379 a 72.844826,21.336206 0 1 1 -145.689652,0 72.844826,21.336206 0 1 1 145.689652,0 z"
         transform="matrix(0.84446206,-0.53561536,0.53561536,0.84446206,254.88407,181.02075)" />
      <g
         mask="none"
         id="g4129">
        <path
           sodipodi:type="arc"
           style="fill:#171717;fill-opacity:1;stroke:none"
           id="path3858"
           sodipodi:cx="423.14816"
           sodipodi:cy="303.05664"
           sodipodi:rx="10.648149"
           sodipodi:ry="10.416667"
           d="m 433.79631,303.05664 c 0,5.75297 -4.76734,10.41667 -10.64815,10.41667 -5.88081,0 -10.64815,-4.6637 -10.64815,-10.41667 0,-5.75297 4.76734,-10.41667 10.64815,-10.41667 5.88081,0 10.64815,4.6637 10.64815,10.41667 z"
           transform="matrix(1.0512201,0,0,1.0512201,-14.684725,-50.650059)"
           mask="url(#mask4087)" />
        <path
           sodipodi:type="arc"
           style="fill:#ffffff;fill-opacity:0.81089741;stroke:none"
           id="path4127"
           sodipodi:cx="52.586208"
           sodipodi:cy="233.15517"
           sodipodi:rx="6.034483"
           sodipodi:ry="3.4482758"
           d="m 58.620691,233.15517 c 0,1.90443 -2.70173,3.44827 -6.034483,3.44827 -3.332753,0 -6.034483,-1.54384 -6.034483,-3.44827 0,-1.90443 2.70173,-3.44828 6.034483,-3.44828 3.332753,0 6.034483,1.54385 6.034483,3.44828 z"
           transform="matrix(0.70377929,-0.71041869,0.71041869,0.70377929,223.4764,137.44624)"
           inkscape:transform-center-x="-4.9036422"
           inkscape:transform-center-y="4.9271105" />
      </g>
      <g
         mask="none"
         transform="translate(64.655172,0.43103448)"
         id="g4133">
        <path
           mask="url(#mask4087)"
           transform="matrix(1.0512201,0,0,1.0512201,-14.684725,-50.650059)"
           d="m 433.79631,303.05664 c 0,5.75297 -4.76734,10.41667 -10.64815,10.41667 -5.88081,0 -10.64815,-4.6637 -10.64815,-10.41667 0,-5.75297 4.76734,-10.41667 10.64815,-10.41667 5.88081,0 10.64815,4.6637 10.64815,10.41667 z"
           sodipodi:ry="10.416667"
           sodipodi:rx="10.648149"
           sodipodi:cy="303.05664"
           sodipodi:cx="423.14816"
           id="path4135"
           style="fill:#171717;fill-opacity:1;stroke:none"
           sodipodi:type="arc" />
        <path
           inkscape:transform-center-y="4.9271105"
           inkscape:transform-center-x="-4.9036422"
           transform="matrix(0.70377929,-0.71041869,0.71041869,0.70377929,223.4764,137.44624)"
           d="m 58.620691,233.15517 c 0,1.90443 -2.70173,3.44827 -6.034483,3.44827 -3.332753,0 -6.034483,-1.54384 -6.034483,-3.44827 0,-1.90443 2.70173,-3.44828 6.034483,-3.44828 3.332753,0 6.034483,1.54385 6.034483,3.44828 z"
           sodipodi:ry="3.4482758"
           sodipodi:rx="6.034483"
           sodipodi:cy="233.15517"
           sodipodi:cx="52.586208"
           id="path4137"
           style="fill:#ffffff;fill-opacity:0.81089741;stroke:none"
           sodipodi:type="arc" />
      </g>
    </g>
  </g>
</svg>
